<svg width="25" height="25" viewBox="0 0 25 25" fill="none" xmlns="http://www.w3.org/2000/svg">
<path d="M12.5 10.1562V3.51562C12.5 2.99762 12.2942 2.50084 11.928 2.13456C11.5617 1.76828 11.0649 1.5625 10.5469 1.5625C10.0289 1.5625 9.5321 1.76828 9.16582 2.13456C8.79954 2.50084 8.59376 2.99762 8.59376 3.51562V15.358L6.4524 11.6491C6.32428 11.4267 6.15359 11.2318 5.95009 11.0754C5.74659 10.9191 5.51428 10.8044 5.26643 10.7379C5.01857 10.6713 4.76004 10.6543 4.5056 10.6878C4.25117 10.7212 4.00581 10.8045 3.78357 10.9328C3.56132 11.0611 3.36655 11.2319 3.21036 11.4356C3.05418 11.6392 2.93966 11.8716 2.87335 12.1195C2.80703 12.3674 2.79022 12.626 2.82388 12.8804C2.85753 13.1348 2.941 13.3801 3.06949 13.6022C6.25001 20.3125 8.18529 22.6562 12.5 22.6562C13.526 22.6562 14.5419 22.4542 15.4897 22.0616C16.4376 21.6689 17.2988 21.0935 18.0243 20.368C18.7497 19.6426 19.3252 18.7813 19.7178 17.8335C20.1104 16.8856 20.3125 15.8697 20.3125 14.8438V10.9375C20.3125 10.4195 20.1067 9.92271 19.7405 9.55643C19.3742 9.19015 18.8774 8.98438 18.3594 8.98438C17.8414 8.98438 17.3446 9.19015 16.9783 9.55643C16.612 9.92271 16.4063 10.4195 16.4063 10.9375" stroke="#297152" stroke-width="2" stroke-linecap="round" stroke-linejoin="round"/>
<path d="M16.4062 10.9375V9.76562C16.4062 9.24762 16.2005 8.75084 15.8342 8.38456C15.4679 8.01828 14.9711 7.8125 14.4531 7.8125C13.9351 7.8125 13.4383 8.01828 13.0721 8.38456C12.7058 8.75084 12.5 9.24762 12.5 9.76562V10.1562" stroke="#297152" stroke-width="2" stroke-linecap="round" stroke-linejoin="round"/>
</svg>